<svg xmlns="http://www.w3.org/2000/svg" width="192" height="197" viewBox="0 0 192 197">
  <defs>
    <style>
      .cls-1 {
        fill: #e9f7f7;
        fill-rule: evenodd;
      }
    </style>
  </defs>
  <path class="cls-1" d="M1829.95,3141.11a2.065,2.065,0,1,0,2.08,2.07A2.078,2.078,0,0,0,1829.95,3141.11Zm-13.91-14.33h0a2.353,2.353,0,0,0-2.05,1.93,3.313,3.313,0,0,0-.04.55,2.35,2.35,0,0,0,1.66,2.27,2.874,2.874,0,0,0,.43.28h0c1.15,0,2.08-1.37,2.08-2.51S1817.19,3126.78,1816.04,3126.78Zm6.95,7.44a2.065,2.065,0,1,0,2.09,2.07A2.085,2.085,0,0,0,1822.99,3134.22Zm6.96,34.44a2.07,2.07,0,1,0,2.08,2.07A2.078,2.078,0,0,0,1829.95,3168.66Zm0-13.77a2.065,2.065,0,1,0,2.08,2.06A2.07,2.07,0,0,0,1829.95,3154.89Zm-13.91-.06h0a1.816,1.816,0,1,0,0,3.59h0A1.815,1.815,0,1,0,1816.04,3154.83Zm20.86,20.72a2.07,2.07,0,1,0,2.09,2.07A2.076,2.076,0,0,0,1836.9,3175.55Zm0-13.77a2.065,2.065,0,1,0,2.09,2.06A2.068,2.068,0,0,0,1836.9,3161.78Zm-13.91,0a2.065,2.065,0,1,0,2.09,2.06A2.076,2.076,0,0,0,1822.99,3161.78Zm6.96,34.44a2.065,2.065,0,1,0,2.08,2.07A2.072,2.072,0,0,0,1829.95,3196.22Zm0-13.78a2.065,2.065,0,1,0,2.08,2.07A2.078,2.078,0,0,0,1829.95,3182.44Zm-13.91-.29h0a2.161,2.161,0,0,0,0,4.32h0A2.162,2.162,0,0,0,1816.04,3182.15Zm20.86,20.96a2.065,2.065,0,1,0,2.09,2.06A2.068,2.068,0,0,0,1836.9,3203.11Zm0-13.78a2.065,2.065,0,1,0,2.09,2.07A2.07,2.07,0,0,0,1836.9,3189.33Zm-13.91,0a2.065,2.065,0,1,0,2.09,2.07A2.078,2.078,0,0,0,1822.99,3189.33Zm6.96,34.44a2.07,2.07,0,1,0,2.08,2.07A2.078,2.078,0,0,0,1829.95,3223.77Zm0-13.78a2.07,2.07,0,1,0,2.08,2.07A2.078,2.078,0,0,0,1829.95,3209.99Zm-13.91.21h0a1.82,1.82,0,1,0,0,3.6h0A1.819,1.819,0,1,0,1816.04,3210.2Zm6.95,6.68a2.07,2.07,0,1,0,2.09,2.07A2.085,2.085,0,0,0,1822.99,3216.88Zm-6.95,19.93h0a2.156,2.156,0,0,0,0,4.31h0A2.156,2.156,0,0,0,1816.04,3236.81Zm-6.96-116.36a2.065,2.065,0,1,0,2.09,2.06A2.076,2.076,0,0,0,1809.08,3120.45Zm-13.1-13.11a3.418,3.418,0,0,0-.81.35h0c-0.87,0-1.61.01-1.92,0.75a0.991,0.991,0,0,0-.17.55,1.719,1.719,0,0,0,.17.75,2.021,2.021,0,0,0,1.92,1.2h0a2.226,2.226,0,0,0,.81-0.23A1.753,1.753,0,0,0,1795.98,3107.34Zm20.06,37.9a2.065,2.065,0,1,0-2.09-2.06A2.068,2.068,0,0,0,1816.04,3145.24Zm-6.96,2.76a2.065,2.065,0,1,0,2.09,2.07A2.078,2.078,0,0,0,1809.08,3148Zm13.91,4.13a2.065,2.065,0,1,0-2.09-2.06A2.076,2.076,0,0,0,1822.99,3152.13Zm-13.91-17.91a2.065,2.065,0,1,0,2.09,2.07A2.085,2.085,0,0,0,1809.08,3134.22Zm-13.1-.12a2.668,2.668,0,0,0-.81-0.44h0a2.345,2.345,0,0,0-1.92,1.55,2.617,2.617,0,0,0-.17.94,1.5,1.5,0,0,0,.17.69,1.981,1.981,0,0,0,1.92,1.15h0a2.025,2.025,0,0,0,.81.02A2.14,2.14,0,0,0,1795.98,3134.1Zm20.06,38.7a2.07,2.07,0,1,0-2.09-2.07A2.076,2.076,0,0,0,1816.04,3172.8Zm-6.96,2.75a2.07,2.07,0,1,0,2.09,2.07A2.085,2.085,0,0,0,1809.08,3175.55Zm13.91,4.14a2.07,2.07,0,1,0-2.09-2.07A2.085,2.085,0,0,0,1822.99,3179.69Zm-13.91-17.91a2.065,2.065,0,1,0,2.09,2.06A2.076,2.076,0,0,0,1809.08,3161.78Zm-13.1.17a1.98,1.98,0,0,0-.81-0.15h0a2.048,2.048,0,0,0-1.92,1.25,1.911,1.911,0,0,0-.17.8,2.535,2.535,0,0,0,.17.91,2.163,2.163,0,0,0,1.92,1.36h0a2.265,2.265,0,0,0,.81-0.26,2.142,2.142,0,0,0,1.27-1.96A2.118,2.118,0,0,0,1795.98,3161.95Zm20.06,38.4a2.065,2.065,0,1,0-2.09-2.06A2.074,2.074,0,0,0,1816.04,3200.35Zm-6.96,2.76a2.065,2.065,0,1,0,2.09,2.06A2.076,2.076,0,0,0,1809.08,3203.11Zm13.91,4.13a2.065,2.065,0,1,0-2.09-2.07A2.085,2.085,0,0,0,1822.99,3207.24Zm-13.91-17.91a2.065,2.065,0,1,0,2.09,2.07A2.078,2.078,0,0,0,1809.08,3189.33Zm-13.1-.08a2.554,2.554,0,0,0-.81-0.4h0a2.307,2.307,0,0,0-1.92,1.5,2.6,2.6,0,0,0-.17.93,1.622,1.622,0,0,0,.17.72,2,2,0,0,0,1.92,1.17h0a2.193,2.193,0,0,0,.81-0.01A2.14,2.14,0,0,0,1795.98,3189.25Zm20.06,38.66a2.07,2.07,0,1,0-2.09-2.07A2.076,2.076,0,0,0,1816.04,3227.91Zm-6.96,2.75a2.065,2.065,0,1,0,2.09,2.07A2.085,2.085,0,0,0,1809.08,3230.66Zm13.91,4.13a2.065,2.065,0,1,0-2.09-2.06A2.076,2.076,0,0,0,1822.99,3234.79Zm-13.91-17.91a2.07,2.07,0,1,0,2.09,2.07A2.085,2.085,0,0,0,1809.08,3216.88Zm-13.1.21a2.15,2.15,0,0,0-.81-0.11h0a2.029,2.029,0,0,0-1.92,1.21,1.887,1.887,0,0,0-.17.78,0.561,0.561,0,0,0,.17.4c0.31,0.74,1.05.85,1.92,0.85h0a2.821,2.821,0,0,0,.81.24A1.753,1.753,0,0,0,1795.98,3217.09Zm13.1,27.35a2.065,2.065,0,1,0,2.09,2.06A2.076,2.076,0,0,0,1809.08,3244.44Zm-13.1-.05a2.454,2.454,0,0,0-.81-0.36h0a2.258,2.258,0,0,0-1.92,1.47,2.4,2.4,0,0,0-.17.9,1.719,1.719,0,0,0,.17.75,2.029,2.029,0,0,0,1.92,1.21h0a1.971,1.971,0,0,0,.81-0.06A2.14,2.14,0,0,0,1795.98,3244.39Zm-14.72-151.5a2.07,2.07,0,1,0,2.08,2.07A2.078,2.078,0,0,0,1781.26,3092.89Zm20.86,20.67h0a2.093,2.093,0,0,0-1.92,1.26,2.105,2.105,0,0,0,0,1.61,2.093,2.093,0,0,0,1.92,1.26h0a2.072,2.072,0,0,0,1.92-1.26,1.991,1.991,0,0,0,0-1.61A2.072,2.072,0,0,0,1802.12,3113.56Zm-13.91,0a2.065,2.065,0,1,0,2.09,2.06A2.068,2.068,0,0,0,1788.21,3113.56Zm-13.91,0a2.065,2.065,0,1,0,2.09,2.06A2.068,2.068,0,0,0,1774.3,3113.56Zm13.91-13.78a2.074,2.074,0,0,0-2.04,1.65,1.931,1.931,0,0,0-.04.42,2.059,2.059,0,0,0,1.66,2.02,1.992,1.992,0,0,0,.42.04,1.872,1.872,0,0,0,.42-0.04,2.068,2.068,0,0,0,1.67-2.02,1.931,1.931,0,0,0-.04-0.42A2.094,2.094,0,0,0,1788.21,3099.78Zm-13.91,0a2.074,2.074,0,0,0-2.04,1.65,1.931,1.931,0,0,0-.04.42,2.059,2.059,0,0,0,1.66,2.02,1.992,1.992,0,0,0,.42.04,1.872,1.872,0,0,0,.42-0.04,2.068,2.068,0,0,0,1.67-2.02,1.931,1.931,0,0,0-.05-0.42A2.074,2.074,0,0,0,1774.3,3099.78Zm-13.91,0h0a2.074,2.074,0,0,0-2.04,1.65,1.931,1.931,0,0,0-.05.42,2.068,2.068,0,0,0,1.67,2.02,1.931,1.931,0,0,0,.42.04h0A2.065,2.065,0,1,0,1760.39,3099.78Zm20.87,20.67a2.065,2.065,0,1,0,2.08,2.06A2.07,2.07,0,0,0,1781.26,3120.45Zm13.91,0a2.065,2.065,0,1,0,2.08,2.06A2.076,2.076,0,0,0,1795.17,3120.45Zm-13.91-13.78a2.065,2.065,0,1,0,2.08,2.07A2.072,2.072,0,0,0,1781.26,3106.67Zm-13.91,0a2.065,2.065,0,1,0,2.08,2.07A2.072,2.072,0,0,0,1767.35,3106.67Zm34.77,34.44h0a2.093,2.093,0,0,0-1.92,1.26,2.105,2.105,0,0,0,0,1.61,2.093,2.093,0,0,0,1.92,1.26h0a2.072,2.072,0,0,0,1.92-1.26,1.991,1.991,0,0,0,0-1.61A2.072,2.072,0,0,0,1802.12,3141.11Zm-13.91,0a2.065,2.065,0,1,0,2.09,2.07A2.076,2.076,0,0,0,1788.21,3141.11Zm-13.91,0a2.065,2.065,0,1,0,2.09,2.07A2.076,2.076,0,0,0,1774.3,3141.11Zm29.74-12.51a2.065,2.065,0,0,0-1.92-1.27h0a2.086,2.086,0,0,0-1.92,1.27,2.4,2.4,0,0,0-.12.38,1.992,1.992,0,0,0-.04.42,2.068,2.068,0,0,0,1.66,2.03,2.984,2.984,0,0,0,.42.04h0a2.722,2.722,0,0,0,.42-0.04,2.069,2.069,0,0,0,1.5-1.23,1.945,1.945,0,0,0,.17-0.8,1.992,1.992,0,0,0-.04-0.42A1.706,1.706,0,0,0,1804.04,3128.6Zm-15.83-1.27a2.074,2.074,0,0,0-2.04,1.65,1.992,1.992,0,0,0-.04.42,2.079,2.079,0,0,0,1.66,2.03,2.984,2.984,0,0,0,.42.04,2.722,2.722,0,0,0,.42-0.04,2.087,2.087,0,0,0,1.67-2.03,1.992,1.992,0,0,0-.04-0.42A2.094,2.094,0,0,0,1788.21,3127.33Zm-13.91,0a2.074,2.074,0,0,0-2.04,1.65,1.992,1.992,0,0,0-.04.42,2.079,2.079,0,0,0,1.66,2.03,2.984,2.984,0,0,0,.42.04,2.722,2.722,0,0,0,.42-0.04,2.087,2.087,0,0,0,1.67-2.03,2.007,2.007,0,0,0-.05-0.42A2.074,2.074,0,0,0,1774.3,3127.33Zm-13.91,0h0a2.074,2.074,0,0,0-2.04,1.65,2.007,2.007,0,0,0-.05.42,2.087,2.087,0,0,0,1.67,2.03,2.848,2.848,0,0,0,.42.04h0A2.07,2.07,0,1,0,1760.39,3127.33Zm20.87,20.67a2.065,2.065,0,1,0,2.08,2.07A2.072,2.072,0,0,0,1781.26,3148Zm13.91,0a2.065,2.065,0,1,0,2.08,2.07A2.078,2.078,0,0,0,1795.17,3148Zm-13.91-13.78a2.065,2.065,0,1,0,2.08,2.07A2.078,2.078,0,0,0,1781.26,3134.22Zm-13.91,0a2.065,2.065,0,1,0,2.08,2.07A2.078,2.078,0,0,0,1767.35,3134.22Zm34.77,34.44h0a2.1,2.1,0,0,0-1.92,1.27,2.076,2.076,0,0,0-.16.8,2.166,2.166,0,0,0,.16.81,2.093,2.093,0,0,0,1.92,1.26h0a2.072,2.072,0,0,0,1.92-1.26,1.992,1.992,0,0,0,.17-0.81,1.911,1.911,0,0,0-.17-0.8A2.08,2.08,0,0,0,1802.12,3168.66Zm-13.91,0a2.07,2.07,0,1,0,2.09,2.07A2.076,2.076,0,0,0,1788.21,3168.66Zm-13.91,0a2.07,2.07,0,1,0,2.09,2.07A2.076,2.076,0,0,0,1774.3,3168.66Zm27.82-13.77h0a2.093,2.093,0,0,0-1.92,1.26,2.105,2.105,0,0,0,0,1.61,2.093,2.093,0,0,0,1.92,1.26h0a2.072,2.072,0,0,0,1.92-1.26,1.991,1.991,0,0,0,0-1.61A2.072,2.072,0,0,0,1802.12,3154.89Zm-13.91,0a2.065,2.065,0,1,0,2.09,2.06A2.068,2.068,0,0,0,1788.21,3154.89Zm-13.91,0a2.065,2.065,0,1,0,2.09,2.06A2.068,2.068,0,0,0,1774.3,3154.89Zm-13.91,0h0a2.065,2.065,0,1,0,0,4.13h0A2.065,2.065,0,1,0,1760.39,3154.89Zm20.87,20.66a2.07,2.07,0,1,0,2.08,2.07A2.078,2.078,0,0,0,1781.26,3175.55Zm13.91,0a2.07,2.07,0,1,0,2.08,2.07A2.085,2.085,0,0,0,1795.17,3175.55Zm-13.91-13.77a2.065,2.065,0,1,0,2.08,2.06A2.07,2.07,0,0,0,1781.26,3161.78Zm-13.91,0a2.065,2.065,0,1,0,2.08,2.06A2.07,2.07,0,0,0,1767.35,3161.78Zm34.77,34.44h0a2.093,2.093,0,0,0-1.92,1.26,2.105,2.105,0,0,0,0,1.61,2.093,2.093,0,0,0,1.92,1.26h0a2.072,2.072,0,0,0,1.92-1.26,1.991,1.991,0,0,0,0-1.61A2.072,2.072,0,0,0,1802.12,3196.22Zm-13.91,0a2.065,2.065,0,1,0,2.09,2.07A2.07,2.07,0,0,0,1788.21,3196.22Zm-13.91,0a2.065,2.065,0,1,0,2.09,2.07A2.07,2.07,0,0,0,1774.3,3196.22Zm27.82-13.78h0a2.093,2.093,0,0,0-1.92,1.26,2.166,2.166,0,0,0-.16.81,2.114,2.114,0,0,0,.16.8,2.093,2.093,0,0,0,1.92,1.26h0a2.072,2.072,0,0,0,1.92-1.26,1.945,1.945,0,0,0,.17-0.8,1.992,1.992,0,0,0-.17-0.81A2.072,2.072,0,0,0,1802.12,3182.44Zm-13.91,0a2.065,2.065,0,1,0,2.09,2.07A2.076,2.076,0,0,0,1788.21,3182.44Zm-13.91,0a2.065,2.065,0,1,0,2.09,2.07A2.076,2.076,0,0,0,1774.3,3182.44Zm-13.91,0h0a2.065,2.065,0,1,0,0,4.13h0A2.065,2.065,0,1,0,1760.39,3182.44Zm20.87,20.67a2.065,2.065,0,1,0,2.08,2.06A2.07,2.07,0,0,0,1781.26,3203.11Zm13.91,0a2.065,2.065,0,1,0,2.08,2.06A2.076,2.076,0,0,0,1795.17,3203.11Zm-13.91-13.78a2.065,2.065,0,1,0,2.08,2.07A2.072,2.072,0,0,0,1781.26,3189.33Zm-13.91,0a2.065,2.065,0,1,0,2.08,2.07A2.072,2.072,0,0,0,1767.35,3189.33Zm34.77,34.44h0a2.093,2.093,0,0,0-1.92,1.26,2.166,2.166,0,0,0-.16.81,2.114,2.114,0,0,0,.16.8,2.086,2.086,0,0,0,1.92,1.27h0a2.065,2.065,0,0,0,1.92-1.27,1.945,1.945,0,0,0,.17-0.8,1.992,1.992,0,0,0-.17-0.81A2.072,2.072,0,0,0,1802.12,3223.77Zm-13.91,0a2.07,2.07,0,1,0,2.09,2.07A2.076,2.076,0,0,0,1788.21,3223.77Zm-13.91,0a2.07,2.07,0,1,0,2.09,2.07A2.076,2.076,0,0,0,1774.3,3223.77Zm27.82-13.78h0a2.086,2.086,0,0,0-1.92,1.27,2.114,2.114,0,0,0-.16.8,2.166,2.166,0,0,0,.16.81,2.093,2.093,0,0,0,1.92,1.26h0a2.072,2.072,0,0,0,1.92-1.26,1.992,1.992,0,0,0,.17-0.81,1.945,1.945,0,0,0-.17-0.8A2.065,2.065,0,0,0,1802.12,3209.99Zm-13.91,0a2.07,2.07,0,1,0,2.09,2.07A2.076,2.076,0,0,0,1788.21,3209.99Zm-13.91,0a2.07,2.07,0,1,0,2.09,2.07A2.076,2.076,0,0,0,1774.3,3209.99Zm-13.91,0h0a2.07,2.07,0,1,0,0,4.14h0A2.07,2.07,0,1,0,1760.39,3209.99Zm20.87,20.67a2.065,2.065,0,1,0,2.08,2.07A2.078,2.078,0,0,0,1781.26,3230.66Zm13.91,0a2.065,2.065,0,1,0,2.08,2.07A2.085,2.085,0,0,0,1795.17,3230.66Zm-13.91-13.78a2.07,2.07,0,1,0,2.08,2.07A2.078,2.078,0,0,0,1781.26,3216.88Zm-13.91,0a2.07,2.07,0,1,0,2.08,2.07A2.078,2.078,0,0,0,1767.35,3216.88Zm34.77,34.45h0a2.093,2.093,0,0,0-1.92,1.26,2.105,2.105,0,0,0,0,1.61,2.093,2.093,0,0,0,1.92,1.26h0a2.072,2.072,0,0,0,1.92-1.26,1.991,1.991,0,0,0,0-1.61A2.072,2.072,0,0,0,1802.12,3251.33Zm-13.91,0a2.065,2.065,0,1,0,2.09,2.06A2.068,2.068,0,0,0,1788.21,3251.33Zm-13.91,0a2.065,2.065,0,1,0,2.09,2.06A2.068,2.068,0,0,0,1774.3,3251.33Zm27.82-13.78h0a2.093,2.093,0,0,0-1.92,1.26,2.105,2.105,0,0,0,0,1.61,2.093,2.093,0,0,0,1.92,1.26h0a2.072,2.072,0,0,0,1.92-1.26,1.991,1.991,0,0,0,0-1.61A2.072,2.072,0,0,0,1802.12,3237.55Zm-13.91,0a2.065,2.065,0,1,0,2.09,2.06A2.068,2.068,0,0,0,1788.21,3237.55Zm-13.91,0a2.065,2.065,0,1,0,2.09,2.06A2.068,2.068,0,0,0,1774.3,3237.55Zm-13.91,0h0a2.065,2.065,0,1,0,0,4.13h0A2.065,2.065,0,1,0,1760.39,3237.55Zm20.87,20.66a2.07,2.07,0,1,0,2.08,2.07A2.078,2.078,0,0,0,1781.26,3258.21Zm13.91,0a2.07,2.07,0,1,0,2.08,2.07A2.085,2.085,0,0,0,1795.17,3258.21Zm-13.91-13.77a2.065,2.065,0,1,0,2.08,2.06A2.07,2.07,0,0,0,1781.26,3244.44Zm-13.91,0a2.065,2.065,0,1,0,2.08,2.06A2.07,2.07,0,0,0,1767.35,3244.44Zm20.86,20.66a2.07,2.07,0,1,0,2.09,2.07A2.076,2.076,0,0,0,1788.21,3265.1Zm-13.91,0a2.07,2.07,0,1,0,2.09,2.07A2.076,2.076,0,0,0,1774.3,3265.1Zm-13.91,0h0a2.07,2.07,0,1,0,0,4.14h0A2.07,2.07,0,1,0,1760.39,3265.1Zm20.87,6.89a2.065,2.065,0,1,0,2.08,2.07A2.078,2.078,0,0,0,1781.26,3271.99Zm-13.91,0a2.065,2.065,0,1,0,2.08,2.07A2.078,2.078,0,0,0,1767.35,3271.99Zm-6.96-181.85a2.07,2.07,0,1,0-2.09-2.07A2.085,2.085,0,0,0,1760.39,3090.14Zm-13.86,0a2.07,2.07,0,1,0-2.09-2.07A2.085,2.085,0,0,0,1746.53,3090.14Zm6.9,2.75a2.07,2.07,0,1,0,2.09,2.07A2.076,2.076,0,0,0,1753.43,3092.89Zm13.92,4.14a2.07,2.07,0,1,0-2.09-2.07A2.076,2.076,0,0,0,1767.35,3097.03Zm-6.96,20.66a2.065,2.065,0,1,0-2.09-2.07A2.078,2.078,0,0,0,1760.39,3117.69Zm-6.96,2.76a2.065,2.065,0,1,0,2.09,2.06A2.068,2.068,0,0,0,1753.43,3120.45Zm13.92,4.13a2.065,2.065,0,1,0-2.09-2.07A2.076,2.076,0,0,0,1767.35,3124.58Zm-13.92-17.91a2.065,2.065,0,1,0,2.09,2.07A2.07,2.07,0,0,0,1753.43,3106.67Zm-13.09.16a2.218,2.218,0,0,0-.82-0.16h0a2.093,2.093,0,0,0-1.92,1.26,2.105,2.105,0,0,0,0,1.61,2.093,2.093,0,0,0,1.92,1.26h0a2.218,2.218,0,0,0,.82-0.16A2.064,2.064,0,0,0,1740.34,3106.83Zm20.05,38.41a2.065,2.065,0,1,0-2.09-2.06A2.076,2.076,0,0,0,1760.39,3145.24Zm-6.96,2.76a2.065,2.065,0,1,0,2.09,2.07A2.07,2.07,0,0,0,1753.43,3148Zm13.92,4.13a2.065,2.065,0,1,0-2.09-2.06A2.068,2.068,0,0,0,1767.35,3152.13Zm-13.92-17.91a2.065,2.065,0,1,0,2.09,2.07A2.076,2.076,0,0,0,1753.43,3134.22Zm-13.09.16a2.218,2.218,0,0,0-.82-0.16h0a2.093,2.093,0,0,0-1.92,1.26,2.166,2.166,0,0,0-.16.81,2.114,2.114,0,0,0,.16.8,2.093,2.093,0,0,0,1.92,1.26h0a2.033,2.033,0,0,0,.82-0.16A2.064,2.064,0,0,0,1740.34,3134.38Zm20.05,38.42a2.07,2.07,0,1,0-2.09-2.07A2.085,2.085,0,0,0,1760.39,3172.8Zm-6.96,2.75a2.07,2.07,0,1,0,2.09,2.07A2.076,2.076,0,0,0,1753.43,3175.55Zm13.92,4.14a2.07,2.07,0,1,0-2.09-2.07A2.076,2.076,0,0,0,1767.35,3179.69Zm-13.92-17.91a2.065,2.065,0,1,0,2.09,2.06A2.068,2.068,0,0,0,1753.43,3161.78Zm-13.09.16a2.033,2.033,0,0,0-.82-0.16h0a2.093,2.093,0,0,0-1.92,1.26,2.105,2.105,0,0,0,0,1.61,2.093,2.093,0,0,0,1.92,1.26h0a2.218,2.218,0,0,0,.82-0.16A2.064,2.064,0,0,0,1740.34,3161.94Zm20.05,38.41a2.065,2.065,0,1,0-2.09-2.06A2.083,2.083,0,0,0,1760.39,3200.35Zm-6.96,2.76a2.065,2.065,0,1,0,2.09,2.06A2.068,2.068,0,0,0,1753.43,3203.11Zm13.92,4.13a2.065,2.065,0,1,0-2.09-2.07A2.076,2.076,0,0,0,1767.35,3207.24Zm-13.92-17.91a2.065,2.065,0,1,0,2.09,2.07A2.07,2.07,0,0,0,1753.43,3189.33Zm-13.09.16a2.218,2.218,0,0,0-.82-0.16h0a2.093,2.093,0,0,0-1.92,1.26,2.105,2.105,0,0,0,0,1.61,2.093,2.093,0,0,0,1.92,1.26h0a2.033,2.033,0,0,0,.82-0.16A2.064,2.064,0,0,0,1740.34,3189.49Zm20.05,38.42a2.07,2.07,0,1,0-2.09-2.07A2.085,2.085,0,0,0,1760.39,3227.91Zm-6.96,2.75a2.065,2.065,0,1,0,2.09,2.07A2.076,2.076,0,0,0,1753.43,3230.66Zm13.92,4.13a2.065,2.065,0,1,0-2.09-2.06A2.068,2.068,0,0,0,1767.35,3234.79Zm-13.92-17.91a2.07,2.07,0,1,0,2.09,2.07A2.076,2.076,0,0,0,1753.43,3216.88Zm-13.09.17a2.039,2.039,0,0,0-.82-0.17h0a2.068,2.068,0,0,0-2.08,2.07,2.114,2.114,0,0,0,.16.8,2.086,2.086,0,0,0,1.92,1.27h0a2.039,2.039,0,0,0,.82-0.17A2.056,2.056,0,0,0,1740.34,3217.05Zm20.05,38.41a2.065,2.065,0,1,0-2.09-2.07A2.085,2.085,0,0,0,1760.39,3255.46Zm-6.96,2.75a2.07,2.07,0,1,0,2.09,2.07A2.076,2.076,0,0,0,1753.43,3258.21Zm13.92,4.14a2.07,2.07,0,1,0-2.09-2.07A2.076,2.076,0,0,0,1767.35,3262.35Zm-13.92-17.91a2.065,2.065,0,1,0,2.09,2.06A2.068,2.068,0,0,0,1753.43,3244.44Zm-13.09.16a2.218,2.218,0,0,0-.82-0.16h0a2.093,2.093,0,0,0-1.92,1.26,2.105,2.105,0,0,0,0,1.61,2.093,2.093,0,0,0,1.92,1.26h0a2.218,2.218,0,0,0,.82-0.16A2.064,2.064,0,0,0,1740.34,3244.6Zm20.05,38.41a2.065,2.065,0,1,0-2.09-2.06A2.076,2.076,0,0,0,1760.39,3283.01Zm-6.96-11.02a2.065,2.065,0,1,0,2.09,2.07A2.076,2.076,0,0,0,1753.43,3271.99Zm-13.09.16a2.218,2.218,0,0,0-.82-0.16h0a2.093,2.093,0,0,0-1.92,1.26,2.166,2.166,0,0,0-.16.81,2.114,2.114,0,0,0,.16.8,2.093,2.093,0,0,0,1.92,1.26h0a2.033,2.033,0,0,0,.82-0.16A2.064,2.064,0,0,0,1740.34,3272.15ZM1732.57,3086a2.07,2.07,0,1,0,2.09,2.07A2.078,2.078,0,0,0,1732.57,3086Zm-6.96,6.89a2.07,2.07,0,1,0,2.09,2.07A2.076,2.076,0,0,0,1725.61,3092.89Zm13.91,0a2.07,2.07,0,1,0,2.09,2.07A2.076,2.076,0,0,0,1739.52,3092.89Zm6.96,21.3h0a1.838,1.838,0,0,0-1.92.94,1.341,1.341,0,0,0-.17.65,1.158,1.158,0,0,0,.17.6,1.908,1.908,0,0,0,1.92,1.05h0a1.984,1.984,0,0,0,1.92-1.13,1.676,1.676,0,0,0,.17-0.74,0.707,0.707,0,0,0-.17-0.46A1.836,1.836,0,0,0,1746.48,3114.19Zm-13.91-.63a2.065,2.065,0,1,0,2.09,2.06A2.07,2.07,0,0,0,1732.57,3113.56Zm-13.91,0a2.065,2.065,0,1,0,2.08,2.06A2.07,2.07,0,0,0,1718.66,3113.56Zm29.74-12.89a2.485,2.485,0,0,0-1.92-1.63h0a2.455,2.455,0,0,0-1.92,1.63,3.505,3.505,0,0,0-.13.58,4.058,4.058,0,0,0-.04.51,2.136,2.136,0,0,0,.17.84,1.781,1.781,0,0,0,1.5.97,3.166,3.166,0,0,0,.42-0.2h0a4.359,4.359,0,0,0,.42.23,1.922,1.922,0,0,0,1.5-1.09,1.633,1.633,0,0,0,.17-0.73,3.657,3.657,0,0,0-.05-0.57A2.482,2.482,0,0,0,1748.4,3100.67Zm-15.83-.89a2.094,2.094,0,0,0-2.05,1.65,2.848,2.848,0,0,0-.04.42,2.068,2.068,0,0,0,1.67,2.02,1.872,1.872,0,0,0,.42.04,1.992,1.992,0,0,0,.42-0.04,2.068,2.068,0,0,0,1.67-2.02,1.931,1.931,0,0,0-.05-0.42A2.074,2.074,0,0,0,1732.57,3099.78Zm-13.91,0a2.094,2.094,0,0,0-2.05,1.65,2.848,2.848,0,0,0-.04.42,2.068,2.068,0,0,0,1.67,2.02,1.872,1.872,0,0,0,.42.04,1.992,1.992,0,0,0,.42-0.04,2.059,2.059,0,0,0,1.66-2.02,1.931,1.931,0,0,0-.04-0.42A2.083,2.083,0,0,0,1718.66,3099.78Zm-13.91-.74h-0.01a2.462,2.462,0,0,0-2.04,2.02,3.945,3.945,0,0,0-.04.6,1.892,1.892,0,0,0,1.66,1.85,3.447,3.447,0,0,0,.42-0.14h0.01A2.167,2.167,0,0,0,1704.75,3099.04Zm20.86,21.41a2.065,2.065,0,1,0,2.09,2.06A2.068,2.068,0,0,0,1725.61,3120.45Zm13.91,0a2.065,2.065,0,1,0,2.09,2.06A2.068,2.068,0,0,0,1739.52,3120.45Zm-13.91-13.78a2.065,2.065,0,1,0,2.09,2.07A2.07,2.07,0,0,0,1725.61,3106.67Zm-13.91,0a2.065,2.065,0,1,0,2.09,2.07A2.078,2.078,0,0,0,1711.7,3106.67Zm34.78,34.57h0a2.013,2.013,0,0,0-1.92,1.19,1.853,1.853,0,0,0-.17.78,2.755,2.755,0,0,0,.17.95,2.212,2.212,0,0,0,1.92,1.41h0a2.257,2.257,0,0,0,1.92-1.43,2.338,2.338,0,0,0,.17-0.88,1.82,1.82,0,0,0-.17-0.78A2.059,2.059,0,0,0,1746.48,3141.24Zm-13.91-.13a2.065,2.065,0,1,0,2.09,2.07A2.078,2.078,0,0,0,1732.57,3141.11Zm-13.91,0a2.065,2.065,0,1,0,2.08,2.07A2.078,2.078,0,0,0,1718.66,3141.11Zm29.74-12.6a2.167,2.167,0,0,0-1.92-1.34h0a2.144,2.144,0,0,0-1.92,1.34,2.347,2.347,0,0,0-.13.43,3.27,3.27,0,0,0-.04.44,1.957,1.957,0,0,0,.17.81,2.113,2.113,0,0,0,1.5,1.25,2.832,2.832,0,0,0,.42.06h0a2.026,2.026,0,0,0,.42-0.06,2.087,2.087,0,0,0,1.5-1.23,1.957,1.957,0,0,0,.17-0.81,2.4,2.4,0,0,0-.05-0.46A1.731,1.731,0,0,0,1748.4,3128.51Zm-15.83-1.18a2.094,2.094,0,0,0-2.05,1.65,2.984,2.984,0,0,0-.04.42,2.087,2.087,0,0,0,1.67,2.03,2.722,2.722,0,0,0,.42.04,2.984,2.984,0,0,0,.42-0.04,2.087,2.087,0,0,0,1.67-2.03,2.007,2.007,0,0,0-.05-0.42A2.074,2.074,0,0,0,1732.57,3127.33Zm-13.91,0a2.094,2.094,0,0,0-2.05,1.65,2.984,2.984,0,0,0-.04.42,2.087,2.087,0,0,0,1.67,2.03,2.722,2.722,0,0,0,.42.04,2.984,2.984,0,0,0,.42-0.04,2.079,2.079,0,0,0,1.66-2.03,1.992,1.992,0,0,0-.04-0.42A2.083,2.083,0,0,0,1718.66,3127.33Zm-13.91-.16h-0.01a2.164,2.164,0,0,0-2.04,1.73,2.383,2.383,0,0,0-.04.46,2.1,2.1,0,0,0,1.66,2.06,2.073,2.073,0,0,0,.42.08h0.01A2.167,2.167,0,0,0,1704.75,3127.17Zm20.86,20.83a2.065,2.065,0,1,0,2.09,2.07A2.07,2.07,0,0,0,1725.61,3148Zm13.91,0a2.065,2.065,0,1,0,2.09,2.07A2.07,2.07,0,0,0,1739.52,3148Zm-13.91-13.78a2.065,2.065,0,1,0,2.09,2.07A2.076,2.076,0,0,0,1725.61,3134.22Zm-13.91,0a2.065,2.065,0,1,0,2.09,2.07A2.085,2.085,0,0,0,1711.7,3134.22Zm34.78,34.07h0a2.253,2.253,0,0,0-1.92,1.45,2.4,2.4,0,0,0-.17.9,1.8,1.8,0,0,0,.17.76,2.037,2.037,0,0,0,1.92,1.22h0a2.009,2.009,0,0,0,1.92-1.18,1.719,1.719,0,0,0,.17-0.75,2.784,2.784,0,0,0-.17-0.97A2.241,2.241,0,0,0,1746.48,3168.29Zm-13.91.37a2.07,2.07,0,1,0,2.09,2.07A2.078,2.078,0,0,0,1732.57,3168.66Zm-13.91,0a2.07,2.07,0,1,0,2.08,2.07A2.078,2.078,0,0,0,1718.66,3168.66Zm27.82-13.36h0a1.915,1.915,0,0,0-1.92,1.06,1.508,1.508,0,0,0-.17.7,0.9,0.9,0,0,0,.17.52,1.856,1.856,0,0,0,1.92.97h0a1.911,1.911,0,0,0,1.92-1.03,1.428,1.428,0,0,0,.17-0.68,0.935,0.935,0,0,0-.17-0.54A1.891,1.891,0,0,0,1746.48,3155.3Zm-13.91-.41a2.065,2.065,0,1,0,2.09,2.06A2.07,2.07,0,0,0,1732.57,3154.89Zm-13.91,0a2.065,2.065,0,1,0,2.08,2.06A2.07,2.07,0,0,0,1718.66,3154.89Zm-13.91.41h-0.01c-1.15,0-2.08.48-2.08,1.63s0.93,1.62,2.08,1.62h0.01c1.15,0,2.08-.48,2.08-1.62S1705.9,3155.3,1704.75,3155.3Zm20.86,20.25a2.07,2.07,0,1,0,2.09,2.07A2.076,2.076,0,0,0,1725.61,3175.55Zm13.91,0a2.07,2.07,0,1,0,2.09,2.07A2.076,2.076,0,0,0,1739.52,3175.55Zm-13.91-13.77a2.065,2.065,0,1,0,2.09,2.06A2.068,2.068,0,0,0,1725.61,3161.78Zm-13.91,0a2.065,2.065,0,1,0,2.09,2.06A2.076,2.076,0,0,0,1711.7,3161.78Zm34.78,33.56h0a2.542,2.542,0,0,0-1.92,1.7,3.163,3.163,0,0,0-.17,1.02,1.064,1.064,0,0,0,.17.58,1.894,1.894,0,0,0,1.92,1.03h0a1.842,1.842,0,0,0,1.92-.92,1.275,1.275,0,0,0,.17-0.64,4.069,4.069,0,0,0-.17-1.16A2.46,2.46,0,0,0,1746.48,3195.34Zm-13.91.88a2.065,2.065,0,1,0,2.09,2.07A2.072,2.072,0,0,0,1732.57,3196.22Zm-13.91,0a2.065,2.065,0,1,0,2.08,2.07A2.072,2.072,0,0,0,1718.66,3196.22Zm27.82-13.87h0a2.116,2.116,0,0,0-1.92,1.31,2.088,2.088,0,0,0-.17.83,2.236,2.236,0,0,0,.17.86,2.119,2.119,0,0,0,1.92,1.33h0a2.148,2.148,0,0,0,2.09-2.15,2.274,2.274,0,0,0-.17-0.86A2.148,2.148,0,0,0,1746.48,3182.35Zm-13.91.09a2.065,2.065,0,1,0,2.09,2.07A2.078,2.078,0,0,0,1732.57,3182.44Zm-13.91,0a2.065,2.065,0,1,0,2.08,2.07A2.078,2.078,0,0,0,1718.66,3182.44Zm-13.91-.09h-0.01a2.167,2.167,0,0,0,0,4.33h0.01A2.167,2.167,0,0,0,1704.75,3182.35Zm20.86,20.76a2.065,2.065,0,1,0,2.09,2.06A2.068,2.068,0,0,0,1725.61,3203.11Zm13.91,0a2.065,2.065,0,1,0,2.09,2.06A2.068,2.068,0,0,0,1739.52,3203.11Zm-13.91-13.78a2.065,2.065,0,1,0,2.09,2.07A2.07,2.07,0,0,0,1725.61,3189.33Zm-13.91,0a2.065,2.065,0,1,0,2.09,2.07A2.078,2.078,0,0,0,1711.7,3189.33Zm34.78,34.14h0a2.212,2.212,0,0,0-1.92,1.41,2.376,2.376,0,0,0-.17.88,1.9,1.9,0,0,0,.17.79,2.063,2.063,0,0,0,1.92,1.25h0a2.049,2.049,0,0,0,1.92-1.21,1.853,1.853,0,0,0,.17-0.78,2.7,2.7,0,0,0-.17-0.94A2.226,2.226,0,0,0,1746.48,3223.47Zm-13.91.3a2.07,2.07,0,1,0,2.09,2.07A2.078,2.078,0,0,0,1732.57,3223.77Zm-13.91,0a2.07,2.07,0,1,0,2.08,2.07A2.078,2.078,0,0,0,1718.66,3223.77Zm27.82-13.28h0a1.881,1.881,0,0,0-1.92,1.01,1.468,1.468,0,0,0-.17.69,0.959,0.959,0,0,0,.17.54,1.875,1.875,0,0,0,1.92,1h0a1.932,1.932,0,0,0,1.92-1.06,1.549,1.549,0,0,0,.17-0.71,0.867,0.867,0,0,0-.17-0.51A1.866,1.866,0,0,0,1746.48,3210.49Zm-13.91-.5a2.07,2.07,0,1,0,2.09,2.07A2.078,2.078,0,0,0,1732.57,3209.99Zm-13.91,0a2.07,2.07,0,1,0,2.08,2.07A2.078,2.078,0,0,0,1718.66,3209.99Zm-13.91.5h-0.01c-1.15,0-2.08.48-2.08,1.62s0.93,1.62,2.08,1.62h0.01c1.15,0,2.08-.48,2.08-1.62S1705.9,3210.49,1704.75,3210.49Zm20.86,20.17a2.065,2.065,0,1,0,2.09,2.07A2.076,2.076,0,0,0,1725.61,3230.66Zm13.91,0a2.065,2.065,0,1,0,2.09,2.07A2.076,2.076,0,0,0,1739.52,3230.66Zm-13.91-13.78a2.07,2.07,0,1,0,2.09,2.07A2.076,2.076,0,0,0,1725.61,3216.88Zm-13.91,0a2.07,2.07,0,1,0,2.09,2.07A2.085,2.085,0,0,0,1711.7,3216.88Zm34.78,34.72h0a1.966,1.966,0,0,0-1.92,1.13,1.633,1.633,0,0,0-.17.73,0.733,0.733,0,0,0,.17.47,1.826,1.826,0,0,0,1.92.92h0a1.866,1.866,0,0,0,1.92-.96,1.285,1.285,0,0,0,.17-0.65,1.124,1.124,0,0,0-.17-0.59A1.925,1.925,0,0,0,1746.48,3251.6Zm-13.91-.27a2.065,2.065,0,1,0,2.09,2.06A2.07,2.07,0,0,0,1732.57,3251.33Zm-13.91,0a2.065,2.065,0,1,0,2.08,2.06A2.07,2.07,0,0,0,1718.66,3251.33Zm27.82-14.88h0c-0.87,0-1.61,1.07-1.92,1.81a3.537,3.537,0,0,0-.17,1.08,0.768,0.768,0,0,0,.17.49,1.829,1.829,0,0,0,1.92.95h0c0.86,0,1.6-.07,1.92-0.81a1.064,1.064,0,0,0,.17-0.58,4.64,4.64,0,0,0-.17-1.24A2.573,2.573,0,0,0,1746.48,3236.45Zm-13.91,1.1a2.065,2.065,0,1,0,2.09,2.06A2.07,2.07,0,0,0,1732.57,3237.55Zm-13.91,0a2.065,2.065,0,1,0,2.08,2.06A2.07,2.07,0,0,0,1718.66,3237.55Zm-13.91-1.1h-0.01a2.167,2.167,0,0,0,0,4.33h0.01A2.167,2.167,0,0,0,1704.75,3236.45Zm20.86,21.76a2.07,2.07,0,1,0,2.09,2.07A2.076,2.076,0,0,0,1725.61,3258.21Zm13.91,0a2.07,2.07,0,1,0,2.09,2.07A2.076,2.076,0,0,0,1739.52,3258.21Zm-13.91-13.77a2.065,2.065,0,1,0,2.09,2.06A2.068,2.068,0,0,0,1725.61,3244.44Zm-13.91,0a2.065,2.065,0,1,0,2.09,2.06A2.076,2.076,0,0,0,1711.7,3244.44Zm34.78,35.3h0c-0.87,0-1.61.09-1.92,0.83a1.1,1.1,0,0,0-.17.59,1.428,1.428,0,0,0,.17.68,1.973,1.973,0,0,0,1.92,1.14h0a2.068,2.068,0,0,0,1.92-1.25,1.9,1.9,0,0,0,.17-0.79c0-.29-0.06-0.13-0.17-0.37C1748.08,3279.82,1747.34,3279.74,1746.48,3279.74Zm-13.91-.86a2.065,2.065,0,1,0,2.09,2.07A2.072,2.072,0,0,0,1732.57,3278.88Zm13.91-14.29h0a2.328,2.328,0,0,0-1.92,1.52,2.6,2.6,0,0,0-.17.93,4.658,4.658,0,0,0,.17,1.25,2.555,2.555,0,0,0,1.92,1.71h0a2.51,2.51,0,0,0,1.92-1.65,2.9,2.9,0,0,0,.17-0.99,4.017,4.017,0,0,0-.17-1.16A2.46,2.46,0,0,0,1746.48,3264.59Zm-13.91.51a2.07,2.07,0,1,0,2.09,2.07A2.078,2.078,0,0,0,1732.57,3265.1Zm-13.91,0a2.07,2.07,0,1,0,2.08,2.07A2.078,2.078,0,0,0,1718.66,3265.1Zm-13.91-.51h-0.01c-1.15,0-2.08,1.56-2.08,2.7s0.93,2.71,2.08,2.71h0.01c1.15,0,2.08-1.57,2.08-2.71S1705.9,3264.59,1704.75,3264.59Zm20.86,7.4a2.065,2.065,0,1,0,2.09,2.07A2.076,2.076,0,0,0,1725.61,3271.99Zm-13.91,0a2.065,2.065,0,1,0,2.09,2.07A2.085,2.085,0,0,0,1711.7,3271.99Zm0-174.96a2.07,2.07,0,1,0-2.09-2.07A2.085,2.085,0,0,0,1711.7,3097.03Zm-6.96,20.66a2.065,2.065,0,1,0-2.08-2.07A2.072,2.072,0,0,0,1704.74,3117.69Zm-6.95,2.76a2.065,2.065,0,1,0,2.09,2.06A2.076,2.076,0,0,0,1697.79,3120.45Zm13.91,4.13a2.065,2.065,0,1,0-2.09-2.07A2.085,2.085,0,0,0,1711.7,3124.58Zm-13.91-17.91a2.065,2.065,0,1,0,2.09,2.07A2.078,2.078,0,0,0,1697.79,3106.67Zm-13.1.51a2.336,2.336,0,0,0-.81.18h0a1.834,1.834,0,0,0-1.92.92,1.239,1.239,0,0,0-.17.63,1.9,1.9,0,0,0,.17.79,2.067,2.067,0,0,0,1.92,1.26h0a2.238,2.238,0,0,0,.81-0.24,1.9,1.9,0,0,0,1.28-1.77A1.884,1.884,0,0,0,1684.69,3107.18Zm20.05,38.06a2.065,2.065,0,1,0-2.08-2.06A2.07,2.07,0,0,0,1704.74,3145.24Zm-6.95,2.76a2.065,2.065,0,1,0,2.09,2.07A2.078,2.078,0,0,0,1697.79,3148Zm13.91,4.13a2.065,2.065,0,1,0-2.09-2.06A2.076,2.076,0,0,0,1711.7,3152.13Zm-13.91-17.91a2.065,2.065,0,1,0,2.09,2.07A2.085,2.085,0,0,0,1697.79,3134.22Zm-13.1.04a2.13,2.13,0,0,0-.81-0.29h0a2.2,2.2,0,0,0-1.92,1.39,2.286,2.286,0,0,0-.17.87,1.98,1.98,0,0,0,.17.8,2.082,2.082,0,0,0,1.92,1.26h0a2,2,0,0,0,2.09-2.08A2.126,2.126,0,0,0,1684.69,3134.26Zm20.05,38.54a2.07,2.07,0,1,0-2.08-2.07A2.078,2.078,0,0,0,1704.74,3172.8Zm-6.95,2.75a2.07,2.07,0,1,0,2.09,2.07A2.085,2.085,0,0,0,1697.79,3175.55Zm13.91,4.14a2.07,2.07,0,1,0-2.09-2.07A2.085,2.085,0,0,0,1711.7,3179.69Zm-13.91-17.91a2.065,2.065,0,1,0,2.09,2.06A2.076,2.076,0,0,0,1697.79,3161.78Zm-13.1-.08a2.554,2.554,0,0,0-.81-0.4h0a2.32,2.32,0,0,0-1.92,1.5,2.589,2.589,0,0,0-.17.92,3.489,3.489,0,0,0,.17,1.08,2.353,2.353,0,0,0,1.92,1.53h0a2.477,2.477,0,0,0,.81-0.37A2.412,2.412,0,0,0,1684.69,3161.7Zm20.05,38.65a2.065,2.065,0,1,0-2.08-2.06A2.076,2.076,0,0,0,1704.74,3200.35Zm-6.95,2.76a2.065,2.065,0,1,0,2.09,2.06A2.076,2.076,0,0,0,1697.79,3203.11Zm13.91,4.13a2.065,2.065,0,1,0-2.09-2.07A2.085,2.085,0,0,0,1711.7,3207.24Zm-13.91-17.91a2.065,2.065,0,1,0,2.09,2.07A2.078,2.078,0,0,0,1697.79,3189.33Zm-13.1.17a2.161,2.161,0,0,0-.81-0.15h0a2.073,2.073,0,0,0-1.92,1.25,1.945,1.945,0,0,0-.17.8,0.935,0.935,0,0,0,.17.54,1.883,1.883,0,0,0,1.92,1h0a2.366,2.366,0,0,0,.81.1A1.864,1.864,0,0,0,1684.69,3189.5Zm20.05,38.41a2.07,2.07,0,1,0-2.08-2.07A2.078,2.078,0,0,0,1704.74,3227.91Zm-6.95,2.75a2.065,2.065,0,1,0,2.09,2.07A2.085,2.085,0,0,0,1697.79,3230.66Zm13.91,4.13a2.065,2.065,0,1,0-2.09-2.06A2.076,2.076,0,0,0,1711.7,3234.79Zm-13.91-17.91a2.07,2.07,0,1,0,2.09,2.07A2.085,2.085,0,0,0,1697.79,3216.88Zm-13.1.06a2.28,2.28,0,0,0-.81-0.27h0a2.184,2.184,0,0,0-1.92,1.37,2.236,2.236,0,0,0-.17.86,0.681,0.681,0,0,0,.17.45,1.82,1.82,0,0,0,1.92.92h0a2.7,2.7,0,0,0,.81.21A1.864,1.864,0,0,0,1684.69,3216.94Zm20.05,38.52a2.065,2.065,0,1,0-2.08-2.07A2.078,2.078,0,0,0,1704.74,3255.46Zm-6.95,2.75a2.07,2.07,0,1,0,2.09,2.07A2.085,2.085,0,0,0,1697.79,3258.21Zm13.91,4.14a2.07,2.07,0,1,0-2.09-2.07A2.085,2.085,0,0,0,1711.7,3262.35Zm-13.91-17.91a2.065,2.065,0,1,0,2.09,2.06A2.076,2.076,0,0,0,1697.79,3244.44Zm-13.1-.06a2.5,2.5,0,0,0-.81-0.38h0a2.3,2.3,0,0,0-1.92,1.48,2.535,2.535,0,0,0-.17.91,1.676,1.676,0,0,0,.17.74,2.023,2.023,0,0,0,1.92,1.19h0a1.979,1.979,0,0,0,.81-0.04,2.126,2.126,0,0,0,1.28-1.95A2.148,2.148,0,0,0,1684.69,3244.38Zm6.15-130.82h0a2.1,2.1,0,0,0-1.93,1.26,2.105,2.105,0,0,0,0,1.61,2.1,2.1,0,0,0,1.93,1.26h0a2.093,2.093,0,0,0,1.92-1.26,2.105,2.105,0,0,0,0-1.61A2.093,2.093,0,0,0,1690.84,3113.56Zm-13.92,0a2.065,2.065,0,1,0,2.09,2.06A2.068,2.068,0,0,0,1676.92,3113.56Zm-6.95,6.89a2.065,2.065,0,1,0,2.09,2.06A2.076,2.076,0,0,0,1669.97,3120.45Zm13.91,0a2.065,2.065,0,1,0,2.09,2.06A2.07,2.07,0,0,0,1683.88,3120.45Zm6.96,20.66h0a2.1,2.1,0,0,0-1.93,1.26,2.105,2.105,0,0,0,0,1.61,2.1,2.1,0,0,0,1.93,1.26h0a2.093,2.093,0,0,0,1.92-1.26,2.105,2.105,0,0,0,0-1.61A2.093,2.093,0,0,0,1690.84,3141.11Zm-13.92,0a2.065,2.065,0,1,0,2.09,2.07A2.076,2.076,0,0,0,1676.92,3141.11Zm-13.91,0a2.065,2.065,0,1,0,2.09,2.07A2.085,2.085,0,0,0,1663.01,3141.11Zm29.75-12.51a2.086,2.086,0,0,0-1.92-1.27h0a2.089,2.089,0,0,0-1.93,1.27,2.4,2.4,0,0,0-.12.38,1.992,1.992,0,0,0-.04.42,2.065,2.065,0,0,0,1.67,2.03,2.722,2.722,0,0,0,.42.04h0a2.984,2.984,0,0,0,.42-0.04,2.068,2.068,0,0,0,1.66-2.03,1.992,1.992,0,0,0-.04-0.42A2.4,2.4,0,0,0,1692.76,3128.6Zm-15.84-1.27a2.083,2.083,0,0,0-2.04,1.65,1.992,1.992,0,0,0-.04.42,2.079,2.079,0,0,0,1.66,2.03,2.984,2.984,0,0,0,.42.04,2.722,2.722,0,0,0,.42-0.04,2.087,2.087,0,0,0,1.67-2.03,2.984,2.984,0,0,0-.04-0.42A2.094,2.094,0,0,0,1676.92,3127.33Zm-13.91,0a2.074,2.074,0,0,0-2.04,1.65,2.007,2.007,0,0,0-.05.42,2.087,2.087,0,0,0,1.67,2.03,2.984,2.984,0,0,0,.42.04,2.722,2.722,0,0,0,.42-0.04,2.087,2.087,0,0,0,1.67-2.03,2.984,2.984,0,0,0-.04-0.42A2.094,2.094,0,0,0,1663.01,3127.33Zm6.96,20.67a2.065,2.065,0,1,0,2.09,2.07A2.078,2.078,0,0,0,1669.97,3148Zm13.91,0a2.065,2.065,0,1,0,2.09,2.07A2.072,2.072,0,0,0,1683.88,3148Zm-13.91-13.78a2.065,2.065,0,1,0,2.09,2.07A2.085,2.085,0,0,0,1669.97,3134.22Zm-13.91,0a2.065,2.065,0,1,0,2.08,2.07A2.078,2.078,0,0,0,1656.06,3134.22Zm34.78,34.44h0a2.105,2.105,0,0,0-1.93,1.27,2.076,2.076,0,0,0-.16.8,2.166,2.166,0,0,0,.16.81,2.1,2.1,0,0,0,1.93,1.26h0a2.093,2.093,0,0,0,1.92-1.26,2.166,2.166,0,0,0,.16-0.81,2.076,2.076,0,0,0-.16-0.8A2.1,2.1,0,0,0,1690.84,3168.66Zm-13.92,0a2.07,2.07,0,1,0,2.09,2.07A2.076,2.076,0,0,0,1676.92,3168.66Zm-13.91,0a2.07,2.07,0,1,0,2.09,2.07A2.085,2.085,0,0,0,1663.01,3168.66Zm27.83-13.77h0a2.1,2.1,0,0,0-1.93,1.26,2.105,2.105,0,0,0,0,1.61,2.1,2.1,0,0,0,1.93,1.26h0a2.093,2.093,0,0,0,1.92-1.26,2.105,2.105,0,0,0,0-1.61A2.093,2.093,0,0,0,1690.84,3154.89Zm-13.92,0a2.065,2.065,0,1,0,2.09,2.06A2.068,2.068,0,0,0,1676.92,3154.89Zm-13.91,0a2.065,2.065,0,1,0,2.09,2.06A2.076,2.076,0,0,0,1663.01,3154.89Zm-13.91,0h0a2.065,2.065,0,1,0,0,4.13h0A2.065,2.065,0,1,0,1649.1,3154.89Zm20.87,20.66a2.07,2.07,0,1,0,2.09,2.07A2.085,2.085,0,0,0,1669.97,3175.55Zm13.91,0a2.07,2.07,0,1,0,2.09,2.07A2.078,2.078,0,0,0,1683.88,3175.55Zm-13.91-13.77a2.065,2.065,0,1,0,2.09,2.06A2.076,2.076,0,0,0,1669.97,3161.78Zm-13.91,0a2.065,2.065,0,1,0,2.08,2.06A2.07,2.07,0,0,0,1656.06,3161.78Zm34.78,34.44h0a2.1,2.1,0,0,0-1.93,1.26,2.105,2.105,0,0,0,0,1.61,2.1,2.1,0,0,0,1.93,1.26h0a2.093,2.093,0,0,0,1.92-1.26,2.105,2.105,0,0,0,0-1.61A2.093,2.093,0,0,0,1690.84,3196.22Zm-13.92,0a2.065,2.065,0,1,0,2.09,2.07A2.07,2.07,0,0,0,1676.92,3196.22Zm-13.91,0a2.065,2.065,0,1,0,2.09,2.07A2.078,2.078,0,0,0,1663.01,3196.22Zm27.83-13.78h0a2.1,2.1,0,0,0-1.93,1.26,2.166,2.166,0,0,0-.16.81,2.055,2.055,0,0,0,2.09,2.06h0a2.093,2.093,0,0,0,1.92-1.26,2.114,2.114,0,0,0,.16-0.8,2.166,2.166,0,0,0-.16-0.81A2.093,2.093,0,0,0,1690.84,3182.44Zm-13.92,0a2.065,2.065,0,1,0,2.09,2.07A2.076,2.076,0,0,0,1676.92,3182.44Zm-13.91,0a2.065,2.065,0,1,0,2.09,2.07A2.085,2.085,0,0,0,1663.01,3182.44Zm-13.91,0h0a2.065,2.065,0,1,0,0,4.13h0A2.065,2.065,0,1,0,1649.1,3182.44Zm20.87,20.67a2.065,2.065,0,1,0,2.09,2.06A2.076,2.076,0,0,0,1669.97,3203.11Zm13.91,0a2.065,2.065,0,1,0,2.09,2.06A2.07,2.07,0,0,0,1683.88,3203.11Zm-13.91-13.78a2.065,2.065,0,1,0,2.09,2.07A2.078,2.078,0,0,0,1669.97,3189.33Zm-13.91,0a2.065,2.065,0,1,0,2.08,2.07A2.072,2.072,0,0,0,1656.06,3189.33Zm34.78,34.44h0a2.1,2.1,0,0,0-1.93,1.26,2.166,2.166,0,0,0-.16.81,2.114,2.114,0,0,0,.16.8,2.089,2.089,0,0,0,1.93,1.27h0a2.086,2.086,0,0,0,1.92-1.27,2.114,2.114,0,0,0,.16-0.8,2.166,2.166,0,0,0-.16-0.81A2.093,2.093,0,0,0,1690.84,3223.77Zm-13.92,0a2.07,2.07,0,1,0,2.09,2.07A2.076,2.076,0,0,0,1676.92,3223.77Zm-13.91,0a2.07,2.07,0,1,0,2.09,2.07A2.085,2.085,0,0,0,1663.01,3223.77Zm27.83-13.78h0a2.089,2.089,0,0,0-1.93,1.27,2.114,2.114,0,0,0-.16.8,2.166,2.166,0,0,0,.16.81,2.1,2.1,0,0,0,1.93,1.26h0a2.093,2.093,0,0,0,1.92-1.26,2.166,2.166,0,0,0,.16-0.81,2.114,2.114,0,0,0-.16-0.8A2.086,2.086,0,0,0,1690.84,3209.99Zm-13.92,0a2.07,2.07,0,1,0,2.09,2.07A2.076,2.076,0,0,0,1676.92,3209.99Zm-13.91,0a2.07,2.07,0,1,0,2.09,2.07A2.085,2.085,0,0,0,1663.01,3209.99Zm-13.91,0h0a2.07,2.07,0,1,0,0,4.14h0A2.07,2.07,0,1,0,1649.1,3209.99Zm20.87,20.67a2.065,2.065,0,1,0,2.09,2.07A2.085,2.085,0,0,0,1669.97,3230.66Zm13.91,0a2.065,2.065,0,1,0,2.09,2.07A2.078,2.078,0,0,0,1683.88,3230.66Zm-13.91-13.78a2.07,2.07,0,1,0,2.09,2.07A2.085,2.085,0,0,0,1669.97,3216.88Zm-13.91,0a2.07,2.07,0,1,0,2.08,2.07A2.078,2.078,0,0,0,1656.06,3216.88Zm34.78,34.45h0a2.1,2.1,0,0,0-1.93,1.26,2.105,2.105,0,0,0,0,1.61,2.1,2.1,0,0,0,1.93,1.26h0a2.093,2.093,0,0,0,1.92-1.26,2.105,2.105,0,0,0,0-1.61A2.093,2.093,0,0,0,1690.84,3251.33Zm-13.92,0a2.065,2.065,0,1,0,2.09,2.06A2.068,2.068,0,0,0,1676.92,3251.33Zm13.92-13.78h0a2.1,2.1,0,0,0-1.93,1.26,2.105,2.105,0,0,0,0,1.61,2.1,2.1,0,0,0,1.93,1.26h0a2.093,2.093,0,0,0,1.92-1.26,2.105,2.105,0,0,0,0-1.61A2.093,2.093,0,0,0,1690.84,3237.55Zm-13.92,0a2.065,2.065,0,1,0,2.09,2.06A2.068,2.068,0,0,0,1676.92,3237.55Zm-13.91,0a2.065,2.065,0,1,0,2.09,2.06A2.076,2.076,0,0,0,1663.01,3237.55Zm20.87,20.66a2.07,2.07,0,1,0,2.09,2.07A2.078,2.078,0,0,0,1683.88,3258.21Zm-13.91-13.77a2.065,2.065,0,1,0,2.09,2.06A2.076,2.076,0,0,0,1669.97,3244.44Zm20.87,20.66h0a2.068,2.068,0,0,0-2.09,2.07,2.068,2.068,0,0,0,2.09,2.07h0a2.068,2.068,0,0,0,2.08-2.07A2.068,2.068,0,0,0,1690.84,3265.1Zm-34.78-112.97a2.065,2.065,0,1,0-2.09-2.06A2.068,2.068,0,0,0,1656.06,3152.13Zm-6.96,20.67a2.07,2.07,0,1,0-2.09-2.07A2.085,2.085,0,0,0,1649.1,3172.8Zm6.96,6.89a2.07,2.07,0,1,0-2.09-2.07A2.076,2.076,0,0,0,1656.06,3179.69Zm-6.96,20.66a2.065,2.065,0,1,0-2.09-2.06A2.083,2.083,0,0,0,1649.1,3200.35Zm6.96,6.89a2.065,2.065,0,1,0-2.09-2.07A2.076,2.076,0,0,0,1656.06,3207.24Zm0,27.55a2.065,2.065,0,1,0-2.09-2.06A2.068,2.068,0,0,0,1656.06,3234.79Z" transform="translate(-1647 -3086)"/>
</svg>
