<svg xmlns="http://www.w3.org/2000/svg" width="16" height="16" viewBox="0 0 16 16">
  <defs>
    <style>
      .cls-1 {
        fill: #fe3e57;
        fill-rule: evenodd;
      }
    </style>
  </defs>
  <path id="Calender" class="cls-1" d="M419.125,1098.25h-0.75V1097h-1.25v1.25h-8.25V1097h-1.25v1.25h-0.75a1.875,1.875,0,0,0-1.875,1.87v11a1.877,1.877,0,0,0,1.875,1.88h12.25a1.877,1.877,0,0,0,1.875-1.88v-11A1.875,1.875,0,0,0,419.125,1098.25Zm-12.25,1.25h0.75v1.25h1.25v-1.25h8.25v1.25h1.25v-1.25h0.75a0.624,0.624,0,0,1,.625.62v1.5h-13.5v-1.5A0.624,0.624,0,0,1,406.875,1099.5Zm12.25,12.25h-12.25a0.626,0.626,0,0,1-.625-0.63v-8.25h13.5v8.25A0.626,0.626,0,0,1,419.125,1111.75Zm-11.75-7.56h1.25v1.25h-1.25v-1.25Zm2.5,0h1.25v1.25h-1.25v-1.25Zm2.5,0h1.25v1.25h-1.25v-1.25Zm2.5,0h1.25v1.25h-1.25v-1.25Zm2.5,0h1.25v1.25h-1.25v-1.25Zm-10,2.5h1.25v1.25h-1.25v-1.25Zm2.5,0h1.25v1.25h-1.25v-1.25Zm2.5,0h1.25v1.25h-1.25v-1.25Zm2.5,0h1.25v1.25h-1.25v-1.25Zm-7.5,2.5h1.25v1.25h-1.25v-1.25Zm2.5,0h1.25v1.25h-1.25v-1.25Zm2.5,0h1.25v1.25h-1.25v-1.25Zm2.5,0h1.25v1.25h-1.25v-1.25Zm2.5-2.5h1.25v1.25h-1.25v-1.25Z" transform="translate(-405 -1097)"/>
</svg>
