<?xml version="1.0" encoding="UTF-8"?>
<svg xmlns="http://www.w3.org/2000/svg" xmlns:xlink="http://www.w3.org/1999/xlink" width="16px" height="16px" viewBox="0 0 16 16" version="1.1">
<g id="surface1">
<path style=" stroke:none;fill-rule:nonzero;fill:rgb(0%,0%,0%);fill-opacity:1;" d="M 8.382812 0.273438 L 10.425781 5.292969 L 15.605469 5.78125 C 15.769531 5.792969 15.910156 5.914062 15.964844 6.078125 C 16.015625 6.246094 15.96875 6.425781 15.84375 6.542969 L 11.921875 10.136719 L 13.082031 15.460938 C 13.117188 15.636719 13.054688 15.816406 12.914062 15.917969 C 12.773438 16.019531 12.589844 16.023438 12.449219 15.925781 L 8 13.132812 L 3.539062 15.9375 C 3.394531 16.027344 3.214844 16.019531 3.082031 15.914062 C 2.945312 15.8125 2.882812 15.636719 2.921875 15.464844 L 4.078125 10.140625 L 0.164062 6.542969 C 0.0351562 6.425781 -0.0117188 6.242188 0.0429688 6.074219 C 0.0976562 5.90625 0.242188 5.789062 0.410156 5.777344 L 5.570312 5.292969 L 7.617188 0.273438 C 7.683594 0.109375 7.832031 0.00390625 8 0.00390625 C 8.167969 0.00390625 8.316406 0.109375 8.382812 0.273438 Z M 8.382812 0.273438 "/>
</g>
</svg>
